REM DIRINDEX 1\2,1\3,1\4,1\5
REM DIRNAME folder01,folder02,folder03,folder04,folder05
TITLE ""
FILE "Round-04-088-089.mp3" MP3
  TRACK 01 AUDIO
    TITLE "0:"
    INDEX 01 00:00:00
  TRACK 02 AUDIO
    TITLE "2:cjc093_1051"
    INDEX 01 00:00:01
  TRACK 03 AUDIO
    TITLE "0:"
    INDEX 01 00:01:01
  TRACK 04 AUDIO
    TITLE "3:cjc093_1052"
    INDEX 01 00:01:36
  TRACK 05 AUDIO
    TITLE "0:"
    INDEX 01 00:03:10
  TRACK 06 AUDIO
    TITLE "4:cjc093_1053"
    INDEX 01 00:03:51
  TRACK 07 AUDIO
    TITLE "0:"
    INDEX 01 00:06:51
  TRACK 08 AUDIO
    TITLE "4:cjc093_1054"
    INDEX 01 00:07:41
  TRACK 09 AUDIO
    TITLE "0:"
    INDEX 01 00:10:14
  TRACK 10 AUDIO
    TITLE "2:cjc093_1055"
    INDEX 01 00:11:27
  TRACK 11 AUDIO
    TITLE "0:"
    INDEX 01 00:12:36
  TRACK 12 AUDIO
    TITLE "2:cjc093_1056"
    INDEX 01 00:13:08
  TRACK 13 AUDIO
    TITLE "0:"
    INDEX 01 00:15:54
  TRACK 14 AUDIO
    TITLE "3:cjc093_1057"
    INDEX 01 00:16:24
  TRACK 15 AUDIO
    TITLE "0:"
    INDEX 01 00:18:72
  TRACK 16 AUDIO
    TITLE "4:cjc093_1058"
    INDEX 01 00:19:34
  TRACK 17 AUDIO
    TITLE "0:"
    INDEX 01 00:22:19
  TRACK 18 AUDIO
    TITLE "2:cjc093_1059"
    INDEX 01 00:23:32
  TRACK 19 AUDIO
    TITLE "0:"
    INDEX 01 00:25:13
  TRACK 20 AUDIO
    TITLE "3:cjc093_1060"
    INDEX 01 00:25:68
  TRACK 21 AUDIO
    TITLE "0:"
    INDEX 01 00:28:53
  TRACK 22 AUDIO
    TITLE "4:cjc093_1061"
    INDEX 01 00:29:11
  TRACK 23 AUDIO
    TITLE "0:"
    INDEX 01 00:31:71
  TRACK 24 AUDIO
    TITLE "2:cjc093_1062"
    INDEX 01 00:33:11
  TRACK 25 AUDIO
    TITLE "0:"
    INDEX 01 00:34:18
  TRACK 26 AUDIO
    TITLE "3:cjc093_1063"
    INDEX 01 00:34:59
  TRACK 27 AUDIO
    TITLE "0:"
    INDEX 01 00:36:29
  TRACK 28 AUDIO
    TITLE "4:cjc093_1064"
    INDEX 01 00:37:18
  TRACK 29 AUDIO
    TITLE "0:"
    INDEX 01 00:40:36
  TRACK 30 AUDIO
    TITLE "3:cjc093_1065"
    INDEX 01 00:41:42
  TRACK 31 AUDIO
    TITLE "0:"
    INDEX 01 00:43:72
  TRACK 32 AUDIO
    TITLE "4:cjc093_1066"
    INDEX 01 00:44:26
  TRACK 33 AUDIO
    TITLE "0:"
    INDEX 01 00:47:28
  TRACK 34 AUDIO
    TITLE "2:cjc093_1067"
    INDEX 01 00:48:36
  TRACK 35 AUDIO
    TITLE "0:"
    INDEX 01 00:49:51
  TRACK 36 AUDIO
    TITLE "3:cjc093_1068"
    INDEX 01 00:50:25
  TRACK 37 AUDIO
    TITLE "0:"
    INDEX 01 00:52:00
  TRACK 38 AUDIO
    TITLE "4:cjc093_1069"
    INDEX 01 00:52:22
  TRACK 39 AUDIO
    TITLE "0:"
    INDEX 01 00:56:41
  TRACK 40 AUDIO
    TITLE "4:cjc093_1070"
    INDEX 01 00:57:29
  TRACK 41 AUDIO
    TITLE "0:"
    INDEX 01 01:01:27
  TRACK 42 AUDIO
    TITLE "2:cjc093_1071"
    INDEX 01 01:02:40
  TRACK 43 AUDIO
    TITLE "0:"
    INDEX 01 01:03:53
  TRACK 44 AUDIO
    TITLE "3:cjc093_1072"
    INDEX 01 01:04:37
  TRACK 45 AUDIO
    TITLE "0:"
    INDEX 01 01:06:63
  TRACK 46 AUDIO
    TITLE "4:cjc093_1073"
    INDEX 01 01:07:23
  TRACK 47 AUDIO
    TITLE "0:"
    INDEX 01 01:09:63
  TRACK 48 AUDIO
    TITLE "3:cjc093_1074"
    INDEX 01 01:11:19
  TRACK 49 AUDIO
    TITLE "0:"
    INDEX 01 01:13:12
  TRACK 50 AUDIO
    TITLE "4:cjc093_1075"
    INDEX 01 01:13:36
  TRACK 51 AUDIO
    TITLE "0:"
    INDEX 01 01:16:54
  TRACK 52 AUDIO
    TITLE "2:cjc093_1076"
    INDEX 01 01:17:69
  TRACK 53 AUDIO
    TITLE "0:"
    INDEX 01 01:18:72
  TRACK 54 AUDIO
    TITLE "3:cjc093_1077"
    INDEX 01 01:19:46
  TRACK 55 AUDIO
    TITLE "0:"
    INDEX 01 01:21:23
  TRACK 56 AUDIO
    TITLE "4:cjc093_1078"
    INDEX 01 01:21:69
  TRACK 57 AUDIO
    TITLE "0:"
    INDEX 01 01:24:73
  TRACK 58 AUDIO
    TITLE "3:cjc093_1079"
    INDEX 01 01:26:11
  TRACK 59 AUDIO
    TITLE "0:"
    INDEX 01 01:27:22
  TRACK 60 AUDIO
    TITLE "4:cjc093_1080"
    INDEX 01 01:28:00
  TRACK 61 AUDIO
    TITLE "0:"
    INDEX 01 01:31:26
